<svg width="89" height="30" viewBox="0 0 89 30" fill="none" xmlns="http://www.w3.org/2000/svg">
<path d="M60.3066 29.3782H64.8567V15.8294H60.3066V29.3782Z" fill="#FE5000"/>
<path d="M54.1856 15.8294H49.6356H44.9512V19.7728H49.6356V29.3782H54.1856V19.7728H59.1735V15.8294H54.1856Z" fill="#FE5000"/>
<path d="M39.3848 29.3782H43.9348V15.8294H39.3848V29.3782Z" fill="#FE5000"/>
<path d="M23.6758 22.6038C23.6758 26.3453 26.608 29.3782 31.0569 29.3782H38.5065V25.4421H31.7448C30.1812 25.4421 28.2258 24.8232 28.2258 22.6038C28.2258 20.3846 30.1812 19.8365 31.7448 19.8365H38.5065V15.8294H31.0569C26.5069 15.8294 23.6758 18.8623 23.6758 22.6038Z" fill="#FE5000"/>
<path d="M31.9361 5.30271H25.6672V0.499936H21.1172V14.0489H25.6672V9.24609H31.9361V14.0489H36.4861V0.499936H31.9361V5.30271Z" fill="#FE5000"/>
<path d="M15.709 14.0488H20.259V0.499875H15.709V14.0488Z" fill="#FE5000"/>
<path d="M39.3352 0.499937H37.4141V14.0489H39.3352H41.9641H49.6645V10.1055H41.9641V8.98708H47.9457V5.56172H41.9641V4.44332H49.6645V0.499937H41.9641H39.3352Z" fill="#FE5000"/>
<path d="M0 7.27436C0 11.0158 2.93226 14.0488 7.38115 14.0488H14.8307V10.1125H8.06901C6.50545 10.1125 4.55002 9.49361 4.55002 7.27436C4.55002 5.055 6.50545 4.50692 8.06901 4.50692H14.8307V0.499957H7.38115C2.83113 0.499957 0 3.53289 0 7.27436Z" fill="#FE5000"/>
<path d="M71.9905 5.10916V14.0484H67.4404V4.53594C67.4404 4.22743 67.1897 3.97669 66.8812 3.97669C66.5729 3.97669 66.322 4.22743 66.322 4.53594V9.37C66.322 12.1869 64.031 14.4792 61.213 14.4792C58.3961 14.4792 56.1038 12.1869 56.1038 9.37V4.53594C56.1038 4.22743 55.8531 3.97669 55.5447 3.97669C55.391 3.97669 55.2505 4.03937 55.1493 4.14061C55.0482 4.24162 54.9855 4.38219 54.9855 4.53594V14.0484H50.4355V5.10916C50.4355 2.29222 52.7277 5.72205e-06 55.5447 5.72205e-06C56.9532 5.72205e-06 58.2302 0.573339 59.1554 1.49854C60.0805 2.42351 60.6539 3.70058 60.6539 5.10916V9.94233C60.6539 10.2507 60.9046 10.5025 61.213 10.5025C61.5214 10.5025 61.7721 10.2507 61.7721 9.94233V5.10916C61.7721 2.29222 64.0642 5.72205e-06 66.8812 5.72205e-06C69.6993 5.72205e-06 71.9905 2.29222 71.9905 5.10916Z" fill="#FE5000"/>
<path d="M79.438 7.51846L80.4814 4.71191L81.5249 7.51846H79.438ZM83.9531 14.0488H88.5318L84.3428 2.99325C83.8095 1.68602 82.65 0.1724 80.4671 0.1724C78.2841 0.1724 77.1247 1.68602 76.5914 2.99325L72.4023 14.0488H77.0104L77.9721 11.4618H82.9913L83.9531 14.0488Z" fill="#FE5000"/>
</svg>
