<svg width="58" height="58" viewBox="0 0 58 58" fill="none" xmlns="http://www.w3.org/2000/svg">
<path fill-rule="evenodd" clip-rule="evenodd" d="M37.5964 0C43.391 0 46.2876 0 49.4069 0.98605C52.8124 2.22559 55.4944 4.90764 56.7339 8.31312C57.72 11.4319 57.72 14.3295 57.72 20.1236V37.5964C57.72 43.391 57.72 46.2876 56.7339 49.4069C55.4944 52.8124 52.8124 55.4944 49.4069 56.7335C46.2876 57.72 43.391 57.72 37.5964 57.72H20.1236C14.329 57.72 11.4319 57.72 8.31312 56.7335C4.90764 55.4944 2.22559 52.8124 0.98605 49.4069C0 46.2876 0 43.391 0 37.5964V20.1236C0 14.3295 0 11.4319 0.98605 8.31312C2.22559 4.90764 4.90764 2.22559 8.31312 0.98605C11.4319 0 14.329 0 20.1236 0H37.5964Z" fill="#FE5000"/>
<path d="M16.5156 28.86C16.5156 35.0863 21.3959 40.1334 28.8004 40.1334H41.199V33.5831H29.9452C27.3429 33.5831 24.0884 32.5531 24.0884 28.86C24.0884 25.1667 27.3429 24.2546 29.9452 24.2546H41.199V17.5865H28.8004C21.2276 17.5865 16.5156 22.6337 16.5156 28.86Z" fill="white"/>
</svg>
