<svg width="17" height="18" viewBox="0 0 17 18" fill="none" xmlns="http://www.w3.org/2000/svg">
<path d="M16 3.72705H1" stroke="white" stroke-linecap="round" stroke-linejoin="round"/>
<path d="M6.4541 7.81836V13.2729" stroke="white" stroke-linecap="round" stroke-linejoin="round"/>
<path d="M10.5459 7.81836V13.2729" stroke="white" stroke-linecap="round" stroke-linejoin="round"/>
<path d="M14.636 3.72705V16.6816C14.636 16.8624 14.5642 17.0358 14.4363 17.1637C14.3084 17.2916 14.135 17.3634 13.9542 17.3634H3.0451C2.86427 17.3634 2.69085 17.2916 2.56298 17.1637C2.43512 17.0358 2.36328 16.8624 2.36328 16.6816V3.72705" stroke="white" stroke-linecap="round" stroke-linejoin="round"/>
<path d="M11.909 3.72727V2.36364C11.909 2.00198 11.7653 1.65513 11.5096 1.3994C11.2539 1.14367 10.907 1 10.5454 1H6.45446C6.0928 1 5.74595 1.14367 5.49022 1.3994C5.23449 1.65513 5.09082 2.00198 5.09082 2.36364V3.72727" stroke="white" stroke-linecap="round" stroke-linejoin="round"/>
</svg>
