<svg width="12" height="13" viewBox="0 0 12 13" fill="none" xmlns="http://www.w3.org/2000/svg">
<g id="close">
<path id="Shape" d="M11.858 0.847115C11.6687 0.663917 11.3618 0.663917 11.1725 0.847115L0.141979 11.5218C-0.0473262 11.705 -0.0473262 12.002 0.141979 12.1852C0.236619 12.2768 0.360697 12.3226 0.484752 12.3226C0.608807 12.3226 0.732862 12.2768 0.827526 12.1852L11.858 1.5105C12.0473 1.32733 12.0473 1.03031 11.858 0.847115Z" fill="white"/>
<path id="Shape_2" d="M11.858 11.5218L0.82748 0.847115C0.638199 0.663917 0.331261 0.663917 0.141979 0.847115C-0.0473263 1.03029 -0.0473263 1.3273 0.141979 1.5105L11.1725 12.1852C11.2672 12.2768 11.3913 12.3226 11.5153 12.3226C11.6394 12.3226 11.7634 12.2768 11.8581 12.1852C12.0473 12.002 12.0473 11.705 11.858 11.5218Z" fill="white"/>
</g>
</svg>
