<svg width="42" height="42" viewBox="0 0 42 42" fill="none" xmlns="http://www.w3.org/2000/svg">
<path d="M3.69681 9.10028C2.34262 11.0658 1.31348 13.2728 0.689453 15.6449H10.2417L3.69681 9.10028Z" fill="#384E98"/>
<path d="M15.1158 0.840729C12.6963 1.54535 10.4556 2.66972 8.48242 4.13625L15.1158 10.7697V0.840729Z" fill="#384E98"/>
<path d="M8.97656 38.2135C10.8274 39.5086 12.8951 40.5112 15.1166 41.1581V32.0744L8.97656 38.2135Z" fill="#384E98"/>
<path d="M0.931641 27.2005C1.62598 29.4496 2.68996 31.5362 4.04974 33.3923L10.2415 27.2005H0.931641Z" fill="#384E98"/>
<path d="M4.0438 8.61349C3.9264 8.77398 3.8107 8.93677 3.69729 9.10124L10.2422 15.6458H0.689939C0.535129 16.235 0.408781 16.8355 0.304688 17.4443H12.8753L4.0438 8.61349Z" fill="white"/>
<path d="M8.48828 37.8675C8.64806 37.9865 8.81227 38.0998 8.97532 38.214L15.1154 32.0746V41.1584C15.7053 41.3308 16.3044 41.4797 16.9139 41.5994V29.4421L8.48828 37.8675Z" fill="white"/>
<path d="M0.464844 25.4012C0.595182 26.0106 0.749017 26.6108 0.931047 27.1997H10.241L4.04923 33.3915C4.72265 34.3116 5.46939 35.175 6.28077 35.9734L16.8529 25.4012H0.464844Z" fill="white"/>
<path d="M15.1148 0.840833V10.7698L8.48129 4.1367C7.56679 4.81677 6.71197 5.57175 5.91992 6.38907L16.9129 17.3821V0.399811C16.3038 0.520218 15.7047 0.669442 15.1148 0.840833Z" fill="white"/>
<path d="M15.1197 27.1372L15.0566 27.2006H15.1197V27.1372Z" fill="#D32030"/>
<path d="M16.8535 25.4027H16.9165V25.3394L16.8535 25.4027Z" fill="#D32030"/>
<path d="M24.9356 17.4441H24.875V17.5051L24.9356 17.4441Z" fill="#D32030"/>
<path d="M15.1811 15.6461L15.1191 15.5838V15.6461H15.1811Z" fill="#D32030"/>
<path d="M16.918 17.3816V17.4436H16.98L16.918 17.3816Z" fill="#D32030"/>
<path d="M26.6699 36.5087V41.216C28.9203 40.586 31.0185 39.593 32.8952 38.2992L27.7946 33.1986C27.387 34.6306 27.2379 35.371 26.6699 36.5087Z" fill="#41569C"/>
<path d="M27.8215 9.61703L33.3896 4.04893C31.3892 2.584 29.1199 1.46761 26.6699 0.78125V5.61688C27.3248 6.92825 27.3799 7.92467 27.8215 9.61703Z" fill="#41569C"/>
<path d="M37.861 33.5138C39.2632 31.6275 40.3561 29.4982 41.066 27.1997H31.5469L37.861 33.5138Z" fill="#41569C"/>
<path d="M41.3049 15.6454C40.6675 13.2232 39.6075 10.9748 38.2106 8.97842L31.543 15.6454H41.3049Z" fill="#41569C"/>
<path d="M29.0488 25.7579L30.4919 27.2009L37.3992 34.1082C37.556 33.9119 37.7118 33.7163 37.8617 33.5151L31.5476 27.2009H41.0667C41.2481 26.6124 41.4022 26.0119 41.5322 25.4024H29.1838C29.1636 25.6574 29.073 25.5046 29.0488 25.7579Z" fill="#E7E7E7"/>
<path d="M27.6056 10.6715L33.866 4.41042C33.7091 4.28878 33.552 4.16775 33.3918 4.05035L27.8237 9.61845C27.8814 9.83861 27.5518 10.4461 27.6056 10.6715Z" fill="#E7E7E7"/>
<path d="M26.6715 5.23051V0.781457C26.0824 0.616362 25.4825 0.476448 24.873 0.362335V2.53251C25.5422 3.25797 26.142 4.16919 26.6715 5.23051Z" fill="#E7E7E7"/>
<path d="M28.9077 17.4446H41.6928C41.589 16.8359 41.4624 16.2357 41.3076 15.6462H31.5457L38.2133 8.97923C37.5578 8.04283 36.8293 7.16221 36.0336 6.34622L28.5234 13.8557C28.7257 15.2178 28.8162 16.0089 28.9077 17.4446Z" fill="#E7E7E7"/>
<path d="M27.4941 32.8958L32.8985 38.3008C33.7974 37.6817 34.6439 36.9927 35.4337 36.2447L28.3251 29.1358C28.0982 30.4505 27.829 31.7204 27.4941 32.8958Z" fill="#E7E7E7"/>
<path d="M24.873 39.2172V41.636C25.4824 41.5226 26.082 41.382 26.6715 41.2169V36.5096C26.1417 37.5714 25.5418 38.4928 24.873 39.2172Z" fill="#E7E7E7"/>
<path d="M28.5236 13.8543L36.033 6.34483C35.357 5.65049 34.6321 5.0043 33.8655 4.40909L27.9648 10.3107C28.2271 11.4069 28.3462 12.6616 28.5236 13.8543Z" fill="#F43939"/>
<path d="M19.9512 0.0258903C20.301 0.00895521 20.6499 0 20.9989 0C20.6478 0 20.2984 0.00895521 19.9512 0.0258903Z" fill="#D32030"/>
<path d="M20.9983 41.9992C20.6491 41.9992 20.3003 41.9896 19.9512 41.9727C20.2984 41.9902 20.6472 41.9992 20.9983 41.9992Z" fill="#D32030"/>
<path d="M20.998 41.9992C22.323 41.9992 23.6168 41.8709 24.8734 41.6357V39.2169C23.7703 40.4126 22.4799 41.9992 20.998 41.9992Z" fill="#D32030"/>
<path d="M41.695 17.4438H29.076C29.2431 20.0775 29.2229 22.7858 29.0156 25.4015H41.5352C41.8382 23.9814 42.0007 22.5099 42.0007 20.9999C42.0007 19.787 41.8926 18.6006 41.695 17.4438Z" fill="#F43939"/>
<path d="M29.0516 25.7581C28.9349 26.9989 28.5284 27.9657 28.3262 29.1362L35.4347 36.2448C36.138 35.5783 36.7955 34.8654 37.4016 34.1085L30.4946 27.2008L29.0516 25.7581Z" fill="#F43939"/>
<path d="M24.8755 2.68869V0.36273C23.6192 0.128299 22.3254 0 21 0C22.4819 0 23.7723 1.49339 24.8755 2.68869Z" fill="#D32030"/>
<path d="M26.6699 37.4167C27.2379 36.2787 27.725 34.9687 28.1328 33.5369L26.6699 32.074V37.4167Z" fill="#41569C"/>
<path d="M28.3148 9.12418C27.8725 7.43182 27.3248 5.8933 26.6699 4.58194V10.7684L28.3148 9.12418Z" fill="#41569C"/>
<path d="M29.4583 26.1656C29.4821 25.9122 29.5037 25.6579 29.5242 25.4026H28.6953L29.4583 26.1656Z" fill="white"/>
<path d="M26.6715 10.7686V4.58176C26.1417 3.52043 25.5422 2.6086 24.873 1.88376V13.4019L28.4848 9.79014C28.4305 9.56467 28.3734 9.3438 28.3164 9.12364L26.6715 10.7686Z" fill="white"/>
<path d="M24.9336 17.4449H29.5822C29.4911 16.0093 29.3458 14.5967 29.1439 13.2349L24.9336 17.4449Z" fill="white"/>
<path d="M24.873 40.1162C25.5422 39.3907 26.1417 38.4795 26.6715 37.4182V32.0756L28.1344 33.5384C28.4699 32.3624 28.7514 31.106 28.979 29.7914L24.8731 25.6858L24.873 40.1162Z" fill="white"/>
<path d="M24.8746 40.1151V25.6847L28.9802 29.7905C29.1821 28.6197 29.341 27.4055 29.4573 26.1645L28.6943 25.4015H29.5233C29.7305 22.7857 29.7507 20.0774 29.5837 17.4438H24.935L29.145 13.2338C28.9676 12.0408 28.7482 10.8869 28.4859 9.79035L24.8747 13.4021V1.88396C23.7715 0.68831 22.481 0 20.9992 0C20.65 0 20.3012 0.00895521 19.9514 0.0258903C18.9185 0.0775822 17.9056 0.20464 16.9168 0.399615V17.3818L5.92356 6.38879C5.24811 7.08579 4.61982 7.82845 4.04483 8.61331L11.0771 15.6456L12.8763 17.4441H0.305718C0.108792 18.6006 0 19.7869 0 20.9999C0 22.5102 0.163144 23.9813 0.465493 25.4015H16.8539L6.28168 35.9737C6.97398 36.6538 7.71105 37.2871 8.49131 37.8666L16.9166 29.4414V41.5988C17.9053 41.7938 18.9189 41.9207 19.9518 41.9725C20.3009 41.9895 20.6497 41.999 20.9989 41.999C22.481 41.999 23.7715 41.3107 24.8746 40.1151Z" fill="#F42F2F"/>
</svg>
