<svg width="11" height="14" viewBox="0 0 11 14" fill="none" xmlns="http://www.w3.org/2000/svg">
<path fill-rule="evenodd" clip-rule="evenodd" d="M0 4.91292C0 2.1997 2.29837 0 5.13333 0C7.96829 0 10.2657 2.1997 10.2667 4.91205C10.2667 5.11625 10.2493 5.31695 10.2236 5.515C9.79508 9.35349 5.53992 13.7844 5.53992 13.7844C5.46302 13.8642 5.38882 13.9176 5.31741 13.9544L5.31373 13.9562L5.16996 14L5.02619 13.9562L5.02252 13.9544C4.9511 13.9176 4.87694 13.8668 4.80001 13.7844C4.80001 13.7844 0.482579 9.36138 0.0439475 5.52374C0.0174103 5.32306 0 5.12063 0 4.91292ZM1.8314 4.91295C1.8314 6.65517 3.31296 8.07313 5.13333 8.07313C6.95371 8.07313 8.43437 6.65517 8.43437 4.91295C8.43437 3.17073 6.95371 1.75277 5.13333 1.75277C3.31296 1.75277 1.8314 3.17073 1.8314 4.91295Z" fill="#8C64C9"/>
</svg>
