<svg width="32" height="32" viewBox="0 0 32 32" fill="none" xmlns="http://www.w3.org/2000/svg">
<path d="M31.5 16.0002C31.5 24.5607 24.5604 31.5002 16 31.5002C7.43959 31.5002 0.5 24.5607 0.5 16.0002C0.5 7.43983 7.43959 0.500244 16 0.500244C24.5604 0.500244 31.5 7.43983 31.5 16.0002Z" stroke="black"/>
<path fill-rule="evenodd" clip-rule="evenodd" d="M26.2152 13.2109C26.2152 13.2109 26.2857 13.0222 25.9209 12.9483C25.5565 12.8745 24.2703 12.636 23.7423 12.5905C23.214 12.5448 22.2012 12.4863 21.6545 12.4863C21.1078 12.4863 20.0079 12.5708 19.4611 12.6489C18.9144 12.7271 17.6965 13.007 17.2802 13.1175C16.8696 13.2265 16.5195 13.3609 15.8186 13.4084L15.7453 13.4078C15.05 13.3597 14.7004 13.2261 14.2915 13.1175C13.8752 13.007 12.6574 12.7271 12.1105 12.6489C11.5638 12.5709 10.464 12.4863 9.91724 12.4863C9.37031 12.4863 8.35756 12.5449 7.82949 12.5905C7.30133 12.636 6.01516 12.8745 5.65066 12.9483C5.28615 13.0222 5.35654 13.211 5.35654 13.211C5.35654 13.211 5.36244 13.2587 5.37168 13.3336C5.33781 13.3935 5.35654 13.4453 5.35654 13.4453C5.35654 13.4453 5.45374 14.2325 5.47858 14.4452C5.50347 14.6577 5.54072 14.662 5.64014 14.675C5.73952 14.688 5.84518 14.7553 5.91972 14.9462C5.99442 15.1369 6.13939 15.7272 6.48735 16.9505C6.83526 18.174 7.2702 18.5125 7.407 18.6295C7.54367 18.7467 8.16496 19.1891 9.23988 19.352C10.3148 19.5145 10.9921 19.4235 11.5638 19.352C12.1353 19.2802 12.5517 19.0721 13.1047 18.7533C13.6578 18.4344 14.0927 17.7965 14.3288 17.3997C14.5649 17.0026 14.7388 16.4507 14.975 15.7089C15.2111 14.9671 15.7827 14.9984 15.7827 14.9984V14.9981H15.7889V14.9984C15.7889 14.9984 16.3606 14.9671 16.5967 15.7089C16.8328 16.4507 17.0067 17.0026 17.2429 17.3997C17.479 17.7965 17.9139 18.4344 18.4669 18.7533C19.02 19.0721 19.4362 19.2802 20.0079 19.352C20.5795 19.4235 21.2568 19.5145 22.3317 19.352C23.4066 19.1891 24.0281 18.7467 24.1647 18.6295C24.3014 18.5125 24.7363 18.174 25.0843 16.9505C25.4322 15.7272 25.5773 15.1369 25.6518 14.9462C25.7264 14.7553 25.832 14.688 25.9314 14.675C26.0308 14.662 26.0682 14.6576 26.093 14.4452C26.1179 14.2325 26.2151 13.4453 26.2151 13.4453C26.2151 13.4453 26.2339 13.3934 26.2 13.3336C26.2093 13.2586 26.2152 13.2109 26.2152 13.2109ZM14.3785 15.4539C14.0803 17.0676 13.5521 17.5883 13.0923 18.0113C12.6326 18.4343 11.7441 18.7422 10.4062 18.7857C9.06823 18.829 8.00665 18.2585 8.00665 18.2585C7.55307 18.0113 7.32006 17.4754 7.10458 16.9766C6.88914 16.4774 6.74422 15.2369 6.74422 15.2369C6.73913 15.1994 6.7343 15.1537 6.73114 15.1012C6.76423 14.5372 7.05887 13.6446 8.51292 13.3583C10.3646 12.994 12.9246 13.5536 13.111 13.6316C13.2737 13.6998 14.3461 13.9865 14.4167 15.1328C14.4113 15.2341 14.3994 15.3406 14.3785 15.4539ZM24.8274 15.2369C24.8274 15.2369 24.6823 16.4774 24.4671 16.9766C24.2518 17.4754 24.0187 18.0113 23.5652 18.2585C23.5652 18.2585 22.5035 18.829 21.1655 18.7857C19.8276 18.7422 18.9392 18.4343 18.4794 18.0113C18.0196 17.5883 17.4915 17.0676 17.1932 15.4539C17.1722 15.3407 17.1603 15.2342 17.155 15.133C17.2256 13.9865 18.2979 13.6999 18.4607 13.6316C18.6472 13.5536 21.2072 12.994 23.0587 13.3583C24.5129 13.6446 24.8074 14.5373 24.8405 15.1013C24.8374 15.1537 24.8326 15.1995 24.8274 15.2369Z" stroke="black"/>
</svg>
