<svg width="32" height="32" viewBox="0 0 32 32" fill="none" xmlns="http://www.w3.org/2000/svg">
<path d="M31.5 16C31.5 24.5604 24.5604 31.5 16 31.5C7.43959 31.5 0.5 24.5604 0.5 16C0.5 7.43959 7.43959 0.5 16 0.5C24.5604 0.5 31.5 7.43959 31.5 16Z" stroke="white"/>
<path fill-rule="evenodd" clip-rule="evenodd" d="M26.2156 13.2107C26.2156 13.2107 26.2862 13.0219 25.9214 12.9481C25.557 12.8743 24.2708 12.6358 23.7428 12.5902C23.2145 12.5446 22.2017 12.4861 21.655 12.4861C21.1083 12.4861 20.0084 12.5706 19.4616 12.6487C18.9149 12.7268 17.697 13.0067 17.2807 13.1172C16.8701 13.2263 16.5199 13.3607 15.8191 13.4081L15.7458 13.4076C15.0505 13.3595 14.7009 13.2258 14.292 13.1173C13.8757 13.0068 12.6579 12.7269 12.111 12.6487C11.5643 12.5706 10.4645 12.4861 9.91772 12.4861C9.37079 12.4861 8.35805 12.5446 7.82998 12.5903C7.30182 12.6358 6.01565 12.8743 5.65115 12.9481C5.28664 13.022 5.35703 13.2107 5.35703 13.2107C5.35703 13.2107 5.36293 13.2585 5.37216 13.3334C5.3383 13.3932 5.35703 13.445 5.35703 13.445C5.35703 13.445 5.45423 14.2323 5.47907 14.4449C5.50396 14.6574 5.5412 14.6618 5.64063 14.6748C5.74001 14.6878 5.84567 14.7551 5.92021 14.9459C5.99491 15.1367 6.13988 15.727 6.48784 16.9503C6.83575 18.1738 7.27069 18.5122 7.40748 18.6293C7.54415 18.7465 8.16545 19.1889 9.24037 19.3517C10.3153 19.5143 10.9926 19.4232 11.5643 19.3517C12.1358 19.28 12.5522 19.0718 13.1052 18.753C13.6583 18.4341 14.0932 17.7963 14.3293 17.3995C14.5654 17.0024 14.7393 16.4504 14.9755 15.7086C15.2115 14.9668 15.7832 14.9981 15.7832 14.9981V14.9979H15.7893V14.9981C15.7893 14.9981 16.361 14.9668 16.5972 15.7086C16.8333 16.4504 17.0072 17.0024 17.2434 17.3995C17.4795 17.7962 17.9144 18.4341 18.4674 18.753C19.0205 19.0718 19.4367 19.28 20.0084 19.3517C20.58 19.4232 21.2573 19.5143 22.3322 19.3517C23.4071 19.1889 24.0286 18.7465 24.1652 18.6293C24.3019 18.5122 24.7368 18.1738 25.0848 16.9503C25.4327 15.727 25.5778 15.1367 25.6523 14.9459C25.7269 14.7551 25.8325 14.6877 25.9319 14.6748C26.0313 14.6617 26.0687 14.6574 26.0935 14.4449C26.1184 14.2323 26.2156 13.445 26.2156 13.445C26.2156 13.445 26.2344 13.3932 26.2005 13.3333C26.2097 13.2584 26.2156 13.2107 26.2156 13.2107ZM14.379 15.4536C14.0808 17.0674 13.5526 17.588 13.0928 18.011C12.6331 18.4341 11.7446 18.742 10.4067 18.7855C9.06872 18.8288 8.00714 18.2583 8.00714 18.2583C7.55356 18.011 7.32055 17.4752 7.10507 16.9763C6.88963 16.4771 6.74471 15.2366 6.74471 15.2366C6.73962 15.1992 6.73479 15.1534 6.73162 15.101C6.76472 14.5369 7.05936 13.6443 8.51341 13.358C10.3651 12.9938 12.9251 13.5534 13.1115 13.6314C13.2742 13.6996 14.3465 13.9863 14.4171 15.1326C14.4118 15.2338 14.3999 15.3403 14.379 15.4536ZM24.8279 15.2366C24.8279 15.2366 24.6828 16.4771 24.4676 16.9763C24.2522 17.4752 24.0192 18.011 23.5657 18.2583C23.5657 18.2583 22.5039 18.8287 21.166 18.7855C19.8281 18.742 18.9397 18.4341 18.4799 18.011C18.0201 17.5881 17.492 17.0674 17.1937 15.4536C17.1727 15.3404 17.1608 15.234 17.1554 15.1327C17.2261 13.9863 18.2984 13.6996 18.4612 13.6314C18.6477 13.5534 21.2076 12.9938 23.0592 13.358C24.5134 13.6443 24.8079 14.537 24.841 15.1011C24.8379 15.1535 24.833 15.1992 24.8279 15.2366Z" stroke="white"/>
</svg>
