<svg width="20" height="23" viewBox="0 0 20 23" fill="none" xmlns="http://www.w3.org/2000/svg">
<path d="M18.8395 10.151L2.4544 0.772046C2.21509 0.633231 1.9432 0.560496 1.66654 0.561286C1.38988 0.562075 1.11841 0.63636 0.879893 0.776538C0.644358 0.910599 0.448671 1.10483 0.312858 1.33936C0.177045 1.57389 0.105983 1.84029 0.106943 2.1113V20.8894C0.105983 21.1604 0.177045 21.4268 0.312858 21.6614C0.448671 21.8959 0.644358 22.0901 0.879893 22.2242C1.11841 22.3644 1.38989 22.4386 1.66654 22.4394C1.94319 22.4402 2.21509 22.3675 2.4544 22.2287L18.8395 12.8498C19.0813 12.7171 19.283 12.5218 19.4235 12.2844C19.5641 12.047 19.6382 11.7762 19.6382 11.5004C19.6382 11.2245 19.5641 10.9537 19.4235 10.7163C19.283 10.4789 19.0813 10.2837 18.8395 10.151ZM1.66935 19.7887V3.21199L9.95782 11.5004L1.66935 19.7887ZM11.0626 12.6052L12.904 14.4467L4.29171 19.3761L11.0626 12.6052ZM4.29064 3.62351L12.9041 8.55398L11.0626 10.3956L4.29064 3.62351ZM14.3094 13.6423L12.1674 11.5004L14.3095 9.35838L18.0517 11.5004L14.3094 13.6423Z" fill="white"/>
</svg>
