<svg width="98" height="98" viewBox="0 0 98 98" fill="none" xmlns="http://www.w3.org/2000/svg">
<g filter="url(#filter0_d_1304_15065)">
<rect x="20" y="20" width="57.72" height="57.72" rx="13" fill="white"/>
<path fill-rule="evenodd" clip-rule="evenodd" d="M49.0286 74.0571C62.8515 74.0571 74.0571 62.8515 74.0571 49.0286C74.0571 35.2057 62.8515 24 49.0286 24C35.2057 24 24 35.2057 24 49.0286C24 62.8515 35.2057 74.0571 49.0286 74.0571ZM49.0286 67.6044C59.2877 67.6044 67.6044 59.2877 67.6044 49.0285C67.6044 38.7694 59.2877 30.4526 49.0286 30.4526C38.7694 30.4526 30.4527 38.7694 30.4527 49.0285C30.4527 59.2877 38.7694 67.6044 49.0286 67.6044Z" fill="url(#paint0_linear_1304_15065)"/>
</g>
<defs>
<filter id="filter0_d_1304_15065" x="0" y="0" width="97.72" height="97.72" filterUnits="userSpaceOnUse" color-interpolation-filters="sRGB">
<feFlood flood-opacity="0" result="BackgroundImageFix"/>
<feColorMatrix in="SourceAlpha" type="matrix" values="0 0 0 0 0 0 0 0 0 0 0 0 0 0 0 0 0 0 127 0" result="hardAlpha"/>
<feOffset/>
<feGaussianBlur stdDeviation="10"/>
<feComposite in2="hardAlpha" operator="out"/>
<feColorMatrix type="matrix" values="0 0 0 0 0 0 0 0 0 0 0 0 0 0 0 0 0 0 0.2 0"/>
<feBlend mode="normal" in2="BackgroundImageFix" result="effect1_dropShadow_1304_15065"/>
<feBlend mode="normal" in="SourceGraphic" in2="effect1_dropShadow_1304_15065" result="shape"/>
</filter>
<linearGradient id="paint0_linear_1304_15065" x1="22.3982" y1="21.9965" x2="73.0123" y2="25.1922" gradientUnits="userSpaceOnUse">
<stop stop-color="#603A95"/>
<stop offset="1" stop-color="#BB6BD9"/>
</linearGradient>
</defs>
</svg>
