<svg width="19" height="24" viewBox="0 0 19 24" fill="none" xmlns="http://www.w3.org/2000/svg">
<path d="M15.8672 12.635C15.9 16.0788 18.9651 17.2249 18.9991 17.2395C18.9731 17.3203 18.5093 18.8726 17.3843 20.4761C16.4117 21.8624 15.4023 23.2435 13.8121 23.2721C12.2498 23.3002 11.7474 22.3686 9.96106 22.3686C8.17528 22.3686 7.61708 23.2435 6.13805 23.3002C4.60321 23.3569 3.43441 21.8012 2.45383 20.42C0.449922 17.5947 -1.08143 12.4363 0.974797 8.95439C1.99627 7.22521 3.82183 6.1303 5.80318 6.10221C7.31034 6.0742 8.73296 7.09108 9.65431 7.09108C10.5751 7.09108 12.3039 5.86821 14.1212 6.04778C14.882 6.07869 17.0177 6.34744 18.389 8.30506C18.2785 8.37187 15.8407 9.75586 15.8672 12.635V12.635ZM12.9309 4.17862C13.7458 3.21668 14.2943 1.87763 14.1446 0.545166C12.97 0.5912 11.5498 1.3085 10.7073 2.26986C9.95223 3.12128 9.29101 4.48392 9.46943 5.78996C10.7787 5.88876 12.1161 5.14114 12.931 4.17862" fill="white"/>
</svg>
