<svg width="106" height="114" viewBox="0 0 106 114" fill="none" xmlns="http://www.w3.org/2000/svg">
<line x1="0.5" y1="-2.18557e-08" x2="0.500005" y2="105" stroke="black" stroke-dasharray="6 6"/>
<path d="M0.5 109L8.74228e-08 109L-8.74228e-08 110L0.5 110L0.5 109ZM105.854 109.854C106.049 109.658 106.049 109.342 105.854 109.146L102.672 105.964C102.476 105.769 102.16 105.769 101.964 105.964C101.769 106.16 101.769 106.476 101.964 106.672L104.793 109.5L101.964 112.328C101.769 112.524 101.769 112.84 101.964 113.036C102.16 113.231 102.476 113.231 102.672 113.036L105.854 109.854ZM3.41667 110L3.91667 110L3.91667 109L3.41667 109L3.41667 110ZM9.25 109L8.75 109L8.75 110L9.25 110L9.25 109ZM15.0833 110L15.5833 110L15.5833 109L15.0833 109L15.0833 110ZM20.9167 109L20.4167 109L20.4167 110L20.9167 110L20.9167 109ZM26.75 110L27.25 110L27.25 109L26.75 109L26.75 110ZM32.5833 109L32.0833 109L32.0833 110L32.5833 110L32.5833 109ZM38.4167 110L38.9167 110L38.9167 109L38.4167 109L38.4167 110ZM44.25 109L43.75 109L43.75 110L44.25 110L44.25 109ZM50.0833 110L50.5833 110L50.5833 109L50.0833 109L50.0833 110ZM55.9167 109L55.4167 109L55.4167 110L55.9167 110L55.9167 109ZM61.75 110L62.25 110L62.25 109L61.75 109L61.75 110ZM67.5834 109L67.0834 109L67.0834 110L67.5834 110L67.5834 109ZM73.4167 110L73.9167 110L73.9167 109L73.4167 109L73.4167 110ZM79.25 109L78.75 109L78.75 110L79.25 110L79.25 109ZM85.0834 110L85.5834 110L85.5834 109L85.0834 109L85.0834 110ZM90.9167 109L90.4167 109L90.4167 110L90.9167 110L90.9167 109ZM96.75 110L97.25 110L97.25 109L96.75 109L96.75 110ZM102.583 109L102.083 109L102.083 110L102.583 110L102.583 109ZM0.5 110L3.41667 110L3.41667 109L0.5 109L0.5 110ZM9.25 110L15.0833 110L15.0833 109L9.25 109L9.25 110ZM20.9167 110L26.75 110L26.75 109L20.9167 109L20.9167 110ZM32.5833 110L38.4167 110L38.4167 109L32.5833 109L32.5833 110ZM44.25 110L50.0833 110L50.0833 109L44.25 109L44.25 110ZM55.9167 110L61.75 110L61.75 109L55.9167 109L55.9167 110ZM67.5834 110L73.4167 110L73.4167 109L67.5834 109L67.5834 110ZM79.25 110L85.0834 110L85.0834 109L79.25 109L79.25 110ZM90.9167 110L96.75 110L96.75 109L90.9167 109L90.9167 110ZM102.583 110L105.5 110L105.5 109L102.583 109L102.583 110Z" fill="black"/>
</svg>
