<svg width="110" height="113" viewBox="0 0 110 113" fill="none" xmlns="http://www.w3.org/2000/svg">
<path d="M105.146 112.354C105.342 112.549 105.658 112.549 105.854 112.354L109.036 109.172C109.231 108.976 109.231 108.66 109.036 108.464C108.84 108.269 108.524 108.269 108.328 108.464L105.5 111.293L102.672 108.464C102.476 108.269 102.16 108.269 101.964 108.464C101.769 108.66 101.769 108.976 101.964 109.172L105.146 112.354ZM105 7L105 9.91667L106 9.91667L106 7L105 7ZM105 15.75L105 21.5833L106 21.5833L106 15.75L105 15.75ZM105 27.4167L105 33.25L106 33.25L106 27.4167L105 27.4167ZM105 39.0833L105 44.9167L106 44.9167L106 39.0833L105 39.0833ZM105 50.75L105 56.5833L106 56.5833L106 50.75L105 50.75ZM105 62.4167L105 68.25L106 68.25L106 62.4167L105 62.4167ZM105 74.0833L105 79.9167L106 79.9167L106 74.0833L105 74.0833ZM105 85.75L105 91.5833L106 91.5833L106 85.75L105 85.75ZM105 97.4167L105 103.25L106 103.25L106 97.4167L105 97.4167ZM105 109.083L105 112L106 112L106 109.083L105 109.083Z" fill="black"/>
<line x1="0.5" y1="0.5" x2="105.5" y2="0.500003" stroke="black" stroke-dasharray="6 6"/>
</svg>
