<svg width="410" height="64" viewBox="0 0 410 64" fill="none" xmlns="http://www.w3.org/2000/svg">
<mask id="path-1-inside-1_688_9364" fill="white">
<path fill-rule="evenodd" clip-rule="evenodd" d="M10 0.000244141C4.81455 0.000244141 0.550932 3.94708 0.0493456 9.00054C2.23575 9.02697 4 10.8076 4 13.0002C4 15.2094 2.20914 17.0002 0 17.0002V22.0002C2.20914 22.0002 4 23.7911 4 26.0002C4 28.2094 2.20914 30.0002 0 30.0002V35.0002C2.20914 35.0002 4 36.7911 4 39.0002C4 41.2094 2.20914 43.0002 0 43.0002V48.0002C2.20914 48.0002 4 49.7911 4 52.0002C4 54.1426 2.31572 55.8916 0.199048 55.9954C1.1237 60.5623 5.16035 64.0002 9.99999 64.0002H400C404.84 64.0002 408.876 60.5623 409.801 55.9954C407.684 55.8916 406 54.1426 406 52.0002C406 49.7911 407.791 48.0002 410 48.0002V43.0002C407.791 43.0002 406 41.2094 406 39.0002C406 36.7911 407.791 35.0002 410 35.0002V30.0002C407.791 30.0002 406 28.2094 406 26.0002C406 23.7911 407.791 22.0002 410 22.0002V17.0002C407.791 17.0002 406 15.2094 406 13.0002C406 10.8076 407.764 9.02698 409.951 9.00055C409.449 3.94708 405.185 0.000244141 400 0.000244141H10Z"/>
</mask>
<path fill-rule="evenodd" clip-rule="evenodd" d="M10 0.000244141C4.81455 0.000244141 0.550932 3.94708 0.0493456 9.00054C2.23575 9.02697 4 10.8076 4 13.0002C4 15.2094 2.20914 17.0002 0 17.0002V22.0002C2.20914 22.0002 4 23.7911 4 26.0002C4 28.2094 2.20914 30.0002 0 30.0002V35.0002C2.20914 35.0002 4 36.7911 4 39.0002C4 41.2094 2.20914 43.0002 0 43.0002V48.0002C2.20914 48.0002 4 49.7911 4 52.0002C4 54.1426 2.31572 55.8916 0.199048 55.9954C1.1237 60.5623 5.16035 64.0002 9.99999 64.0002H400C404.84 64.0002 408.876 60.5623 409.801 55.9954C407.684 55.8916 406 54.1426 406 52.0002C406 49.7911 407.791 48.0002 410 48.0002V43.0002C407.791 43.0002 406 41.2094 406 39.0002C406 36.7911 407.791 35.0002 410 35.0002V30.0002C407.791 30.0002 406 28.2094 406 26.0002C406 23.7911 407.791 22.0002 410 22.0002V17.0002C407.791 17.0002 406 15.2094 406 13.0002C406 10.8076 407.764 9.02698 409.951 9.00055C409.449 3.94708 405.185 0.000244141 400 0.000244141H10Z" fill="#F3F3F3"/>
<path d="M0.0493456 9.00054L-0.945765 8.90177L-1.05351 9.98728L0.0372577 10.0005L0.0493456 9.00054ZM0 17.0002V16.0002H-1V17.0002H0ZM0 22.0002H-1V23.0002H0V22.0002ZM0 30.0002V29.0002H-1V30.0002H0ZM0 35.0002H-1V36.0002H0V35.0002ZM0 43.0002V42.0002H-1V43.0002H0ZM0 48.0002H-1V49.0002H0V48.0002ZM0.199048 55.9954L0.150101 54.9966L-1.01194 55.0535L-0.781064 56.1938L0.199048 55.9954ZM409.801 55.9954L410.781 56.1938L411.012 55.0535L409.85 54.9966L409.801 55.9954ZM410 48.0002V49.0002H411V48.0002H410ZM410 43.0002H411V42.0002H410V43.0002ZM410 35.0002V36.0002H411V35.0002H410ZM410 30.0002H411V29.0002H410V30.0002ZM410 22.0002V23.0002H411V22.0002H410ZM410 17.0002H411V16.0002H410V17.0002ZM409.951 9.00055L409.963 10.0005L411.053 9.98729L410.946 8.90177L409.951 9.00055ZM1.04446 9.09931C1.49578 4.55226 5.3337 1.00024 10 1.00024V-0.999756C4.2954 -0.999756 -0.393914 3.34189 -0.945765 8.90177L1.04446 9.09931ZM5 13.0002C5 10.2593 2.7947 8.03366 0.0614336 8.00062L0.0372577 10.0005C1.67679 10.0203 3 11.3558 3 13.0002H5ZM0 18.0002C2.76142 18.0002 5 15.7617 5 13.0002H3C3 14.6571 1.65685 16.0002 0 16.0002V18.0002ZM1 22.0002V17.0002H-1V22.0002H1ZM5 26.0002C5 23.2388 2.76142 21.0002 0 21.0002V23.0002C1.65685 23.0002 3 24.3434 3 26.0002H5ZM0 31.0002C2.76142 31.0002 5 28.7617 5 26.0002H3C3 27.6571 1.65685 29.0002 0 29.0002V31.0002ZM1 35.0002V30.0002H-1V35.0002H1ZM5 39.0002C5 36.2388 2.76142 34.0002 0 34.0002V36.0002C1.65685 36.0002 3 37.3434 3 39.0002H5ZM0 44.0002C2.76142 44.0002 5 41.7617 5 39.0002H3C3 40.6571 1.65685 42.0002 0 42.0002V44.0002ZM1 48.0002V43.0002H-1V48.0002H1ZM5 52.0002C5 49.2388 2.76142 47.0002 0 47.0002V49.0002C1.65685 49.0002 3 50.3434 3 52.0002H5ZM0.247996 56.9942C2.89465 56.8645 5 54.6785 5 52.0002H3C3 53.6067 1.73679 54.9188 0.150101 54.9966L0.247996 56.9942ZM9.99999 63.0002C5.64548 63.0002 2.01127 59.9067 1.17916 55.7969L-0.781064 56.1938C0.236143 61.2178 4.67523 65.0002 9.99999 65.0002V63.0002ZM400 63.0002H9.99999V65.0002H400V63.0002ZM408.821 55.7969C407.989 59.9067 404.355 63.0002 400 63.0002V65.0002C405.325 65.0002 409.764 61.2178 410.781 56.1938L408.821 55.7969ZM405 52.0002C405 54.6785 407.105 56.8645 409.752 56.9942L409.85 54.9966C408.263 54.9188 407 53.6067 407 52.0002H405ZM410 47.0002C407.239 47.0002 405 49.2388 405 52.0002H407C407 50.3434 408.343 49.0002 410 49.0002V47.0002ZM409 43.0002V48.0002H411V43.0002H409ZM405 39.0002C405 41.7617 407.239 44.0002 410 44.0002V42.0002C408.343 42.0002 407 40.6571 407 39.0002H405ZM410 34.0002C407.239 34.0002 405 36.2388 405 39.0002H407C407 37.3434 408.343 36.0002 410 36.0002V34.0002ZM409 30.0002V35.0002H411V30.0002H409ZM405 26.0002C405 28.7617 407.239 31.0002 410 31.0002V29.0002C408.343 29.0002 407 27.6571 407 26.0002H405ZM410 21.0002C407.239 21.0002 405 23.2388 405 26.0002H407C407 24.3434 408.343 23.0002 410 23.0002V21.0002ZM409 17.0002V22.0002H411V17.0002H409ZM405 13.0002C405 15.7617 407.239 18.0002 410 18.0002V16.0002C408.343 16.0002 407 14.6571 407 13.0002H405ZM409.939 8.00062C407.205 8.03366 405 10.2593 405 13.0002H407C407 11.3558 408.323 10.0203 409.963 10.0005L409.939 8.00062ZM400 1.00024C404.666 1.00024 408.504 4.55226 408.956 9.09932L410.946 8.90177C410.394 3.34189 405.705 -0.999756 400 -0.999756V1.00024ZM10 1.00024H400V-0.999756H10V1.00024Z" fill="#DDDDDD" mask="url(#path-1-inside-1_688_9364)"/>
</svg>
