<svg width="410" height="64" viewBox="0 0 410 64" fill="none" xmlns="http://www.w3.org/2000/svg">
<mask id="path-1-inside-1_204_6559" fill="white">
<path fill-rule="evenodd" clip-rule="evenodd" d="M10 0C4.81455 0 0.550932 3.94683 0.0493456 9.0003C2.23575 9.02673 4 10.8073 4 13C4 15.2091 2.20914 17 0 17V22C2.20914 22 4 23.7909 4 26C4 28.2091 2.20914 30 0 30V35C2.20914 35 4 36.7909 4 39C4 41.2091 2.20914 43 0 43V48C2.20914 48 4 49.7909 4 52C4 54.1424 2.31572 55.8914 0.199048 55.9951C1.1237 60.562 5.16035 64 9.99999 64H400C404.84 64 408.876 60.562 409.801 55.9951C407.684 55.8914 406 54.1424 406 52C406 49.7909 407.791 48 410 48V43C407.791 43 406 41.2091 406 39C406 36.7909 407.791 35 410 35V30C407.791 30 406 28.2091 406 26C406 23.7909 407.791 22 410 22V17C407.791 17 406 15.2091 406 13C406 10.8073 407.764 9.02673 409.951 9.0003C409.449 3.94683 405.185 0 400 0H10Z"/>
</mask>
<path fill-rule="evenodd" clip-rule="evenodd" d="M10 0C4.81455 0 0.550932 3.94683 0.0493456 9.0003C2.23575 9.02673 4 10.8073 4 13C4 15.2091 2.20914 17 0 17V22C2.20914 22 4 23.7909 4 26C4 28.2091 2.20914 30 0 30V35C2.20914 35 4 36.7909 4 39C4 41.2091 2.20914 43 0 43V48C2.20914 48 4 49.7909 4 52C4 54.1424 2.31572 55.8914 0.199048 55.9951C1.1237 60.562 5.16035 64 9.99999 64H400C404.84 64 408.876 60.562 409.801 55.9951C407.684 55.8914 406 54.1424 406 52C406 49.7909 407.791 48 410 48V43C407.791 43 406 41.2091 406 39C406 36.7909 407.791 35 410 35V30C407.791 30 406 28.2091 406 26C406 23.7909 407.791 22 410 22V17C407.791 17 406 15.2091 406 13C406 10.8073 407.764 9.02673 409.951 9.0003C409.449 3.94683 405.185 0 400 0H10Z" fill="#202020"/>
<path d="M0.0493456 9.0003L-0.945765 8.90153L-1.05351 9.98704L0.0372577 10.0002L0.0493456 9.0003ZM0 17V16H-1V17H0ZM0 22H-1V23H0V22ZM0 30V29H-1V30H0ZM0 35H-1V36H0V35ZM0 43V42H-1V43H0ZM0 48H-1V49H0V48ZM0.199048 55.9951L0.150101 54.9963L-1.01194 55.0533L-0.781064 56.1936L0.199048 55.9951ZM409.801 55.9951L410.781 56.1936L411.012 55.0533L409.85 54.9963L409.801 55.9951ZM410 48V49H411V48H410ZM410 43H411V42H410V43ZM410 35V36H411V35H410ZM410 30H411V29H410V30ZM410 22V23H411V22H410ZM410 17H411V16H410V17ZM409.951 9.0003L409.963 10.0002L411.053 9.98704L410.946 8.90153L409.951 9.0003ZM1.04446 9.09907C1.49578 4.55202 5.3337 1 10 1V-1C4.2954 -1 -0.393914 3.34165 -0.945765 8.90153L1.04446 9.09907ZM5 13C5 10.2591 2.7947 8.03341 0.0614336 8.00037L0.0372577 10.0002C1.67679 10.02 3 11.3556 3 13H5ZM0 18C2.76142 18 5 15.7614 5 13H3C3 14.6569 1.65685 16 0 16V18ZM1 22V17H-1V22H1ZM5 26C5 23.2386 2.76142 21 0 21V23C1.65685 23 3 24.3431 3 26H5ZM0 31C2.76142 31 5 28.7614 5 26H3C3 27.6569 1.65685 29 0 29V31ZM1 35V30H-1V35H1ZM5 39C5 36.2386 2.76142 34 0 34V36C1.65685 36 3 37.3431 3 39H5ZM0 44C2.76142 44 5 41.7614 5 39H3C3 40.6569 1.65685 42 0 42V44ZM1 48V43H-1V48H1ZM5 52C5 49.2386 2.76142 47 0 47V49C1.65685 49 3 50.3431 3 52H5ZM0.247996 56.9939C2.89465 56.8642 5 54.6783 5 52H3C3 53.6065 1.73678 54.9186 0.150101 54.9963L0.247996 56.9939ZM9.99999 63C5.64548 63 2.01127 59.9065 1.17916 55.7967L-0.781064 56.1936C0.236143 61.2176 4.67523 65 9.99999 65V63ZM400 63H9.99999V65H400V63ZM408.821 55.7967C407.989 59.9065 404.355 63 400 63V65C405.325 65 409.764 61.2176 410.781 56.1936L408.821 55.7967ZM405 52C405 54.6783 407.105 56.8642 409.752 56.9939L409.85 54.9963C408.263 54.9186 407 53.6065 407 52H405ZM410 47C407.239 47 405 49.2386 405 52H407C407 50.3431 408.343 49 410 49V47ZM409 43V48H411V43H409ZM405 39C405 41.7614 407.239 44 410 44V42C408.343 42 407 40.6569 407 39H405ZM410 34C407.239 34 405 36.2386 405 39H407C407 37.3431 408.343 36 410 36V34ZM409 30V35H411V30H409ZM405 26C405 28.7614 407.239 31 410 31V29C408.343 29 407 27.6569 407 26H405ZM410 21C407.239 21 405 23.2386 405 26H407C407 24.3431 408.343 23 410 23V21ZM409 17V22H411V17H409ZM405 13C405 15.7614 407.239 18 410 18V16C408.343 16 407 14.6569 407 13H405ZM409.939 8.00037C407.205 8.03342 405 10.2591 405 13H407C407 11.3556 408.323 10.0201 409.963 10.0002L409.939 8.00037ZM400 1C404.666 1 408.504 4.55202 408.956 9.09907L410.946 8.90153C410.394 3.34165 405.705 -1 400 -1V1ZM10 1H400V-1H10V1Z" fill="#333333" mask="url(#path-1-inside-1_204_6559)"/>
</svg>
