<svg width="379" height="380" viewBox="0 0 379 380" fill="none" xmlns="http://www.w3.org/2000/svg">
<path fill-rule="evenodd" clip-rule="evenodd" d="M1.19258 209.728C-7.85913 278.735 35.3583 352.92 105.58 374.664C175.801 396.408 240.349 341.049 297.104 292.767C353.86 244.485 413.826 162.464 352.773 91.4927C291.721 20.5211 233.885 110.258 175.801 105.909C117.717 101.56 8.48347 103.299 1.19258 209.728Z" fill="#202020"/>
<path d="M186.475 332.098C186.475 335.472 186.844 336.038 184.019 342.136L194.189 351.27L201.051 340.655L200.681 332.509C200.303 331.757 199.163 333.286 196.015 331.806C192.866 330.327 189.282 331.968 186.475 332.098Z" fill="#FFBF98"/>
<path d="M196.337 341.104C196.933 340.243 200.774 340.497 202.621 340.732L205.086 356.874L155.645 358.191C155.692 353.358 174.897 345.195 184.494 341.717C186.498 343.557 191.047 346.913 193.21 345.621C195.914 344.006 195.592 342.179 196.337 341.104Z" fill="#979797"/>
<path d="M156.545 363.305C154.891 362.395 155.157 359.659 155.496 358.405L205.086 356.873C207.114 356.509 207.99 357.106 208.175 357.45L208.544 363.791L161.935 364.224C160.828 364.297 158.199 364.215 156.545 363.305Z" fill="#FE5000"/>
<path fill-rule="evenodd" clip-rule="evenodd" d="M204.505 349.087C204.479 348.861 204.276 348.698 204.051 348.725C201.887 348.981 197.276 350.931 195.472 356.628L155.634 357.777C155.408 357.784 155.23 357.974 155.236 358.202C155.243 358.43 155.431 358.61 155.657 358.603L196.086 357.437L196.17 357.15C197.795 351.613 202.2 349.777 204.146 349.546C204.371 349.519 204.532 349.314 204.505 349.087Z" fill="white"/>
<path d="M233.866 332.098C233.866 335.472 234.234 336.038 231.41 342.136L241.58 351.27L248.442 340.655L248.072 332.509C247.693 331.757 246.554 333.286 243.405 331.806C240.257 330.327 236.672 331.968 233.866 332.098Z" fill="#FFBF98"/>
<path d="M243.728 341.104C244.323 340.243 248.165 340.497 250.011 340.732L252.477 356.874L203.036 358.191C203.082 353.358 222.288 345.195 231.884 341.717C233.888 343.557 238.438 346.913 240.601 345.621C243.304 344.006 242.983 342.179 243.728 341.104Z" fill="#979797"/>
<path d="M203.936 363.305C202.282 362.395 202.547 359.659 202.887 358.405L252.477 356.873C254.504 356.509 255.381 357.106 255.566 357.45L255.934 363.791L209.326 364.224C208.218 364.297 205.59 364.215 203.936 363.305Z" fill="#FE5000"/>
<path fill-rule="evenodd" clip-rule="evenodd" d="M251.896 349.087C251.87 348.861 251.666 348.698 251.442 348.725C249.278 348.981 244.667 350.931 242.863 356.628L203.024 357.777C202.798 357.784 202.62 357.974 202.627 358.202C202.633 358.43 202.822 358.61 203.048 358.603L243.476 357.437L243.561 357.15C245.186 351.613 249.591 349.777 251.537 349.546C251.762 349.519 251.922 349.314 251.896 349.087Z" fill="white"/>
<path d="M173.279 167.746C154.915 154.713 153.779 145.037 155.507 141.828C163.208 135.015 172.786 138.99 176.611 141.828L173.279 167.746Z" fill="#979797"/>
<path d="M170.318 197.737C170.911 185 174.761 156.391 176.613 143.679L237.705 150.714L235.854 189.961C231.904 203.661 227.56 236.91 241.778 260.31C255.995 283.71 251.898 318.193 248.072 332.51H234.002C227.338 311.528 212.898 267.122 208.455 257.348C204.012 247.573 201.42 216.003 200.679 201.439C198.828 211.313 197.125 237.724 205.122 264.383C213.12 291.041 205.493 320.908 200.679 332.51H186.61C177.723 313.997 169.578 213.658 170.318 197.737Z" fill="white"/>
<path d="M180.315 106.654C173.799 109.023 158.347 106.654 151.435 105.173L149.584 94.0651L178.834 72.9605L215.489 77.4036L236.224 94.0651L230.67 152.195L210.306 162.933C195.125 162.933 177.723 140.176 165.505 139.236C161.654 138.94 157.236 140.841 155.508 141.828C169.43 125.833 178.094 111.467 180.315 106.654Z" fill="black"/>
<path d="M117.27 274.952C122.096 251.43 128.795 233.281 137.369 220.508C145.942 207.734 159.169 196.177 177.048 185.838C195.13 175.365 207.553 166.445 214.317 159.078C221.115 151.543 227.01 142.963 228.94 133.554C235.029 107.374 225.288 87.9705 198.807 80.3556C186.373 77.805 173.608 82.2665 164.461 88.4443C155.517 94.4886 149.498 104.197 146.405 117.57L73.3164 102.576C80.2359 70.5531 95.7221 47.554 119.775 33.5786C143.996 19.6376 173.749 16.2863 209.033 23.5247C244.653 30.832 270.517 45.155 286.625 66.4938C302.767 87.6646 307.616 113.96 301.17 145.38C298.241 159.661 292.273 172.532 283.269 183.992C274.299 195.283 260.248 207.021 241.115 219.204L216.719 234.422C201.434 244.068 191.178 256.935 185.952 273.021L181.79 288.188L117.27 274.952Z" fill="#F6A217"/>
<path d="M187.349 95.9164L175.871 112.948" stroke="#E2E2FE" stroke-linecap="round"/>
<path d="M200.308 69.2579C188.278 66.9423 191.149 51.2806 194.755 44.821L219.562 48.8938L215.859 56.6692C219.932 56.6692 220.673 57.7799 220.302 60.742C220.006 63.1116 216.23 64.3211 214.748 64.4445C214.748 65.9256 212.033 68.2705 210.676 69.2579V82.5871C209.195 85.1788 204.9 90.2143 199.568 89.6219C194.236 89.0295 194.138 84.6852 194.755 82.5871L200.308 69.2579Z" fill="#FFBF98"/>
<path d="M215.859 56.6692C214.146 56.1938 214.632 52.3695 214.955 50.5465C203.766 54.284 203.087 50.3287 204.145 47.8839C185.1 43.3145 185.803 35.3673 188.535 31.9649C193.581 28.9464 200.288 35.6716 203.011 39.4115C203.462 36.8593 205.325 31.8494 209.169 32.228C213.012 32.6065 214.086 37.7344 214.142 40.2511C216.438 37.8995 221.509 34.6014 225.36 38.4739C231.181 44.3263 220.069 57.8383 215.859 56.6692Z" fill="white"/>
<path d="M89.9729 55.9288C91.7007 54.818 96.2672 52.8187 100.71 53.7073C105.153 54.5959 110.46 57.2864 112.558 58.5206C111.818 60.1251 109.4 60.8297 102.191 58.5206C98.4657 57.3272 115.415 69.6671 112.558 72.5903C110.695 74.4972 105.674 69.0671 102.191 65.9257C104.75 69.5538 110.132 76.1979 108.486 77.7739C106.506 79.6684 100.708 72.7108 97.7483 68.8878C99.555 72.2067 105.153 78.1442 103.672 79.6252C101.966 81.3313 95.9394 74.5834 93.0569 71.2505C94.8579 73.3591 98.9869 79.2079 98.1185 80.3657C97.0077 81.8467 89.6026 75.5524 87.3811 71.1093C85.1596 66.6662 85.1596 60.0016 89.9729 55.9288Z" fill="#FFBF98"/>
<path d="M276.734 180.078C278.511 179.486 280.93 183.534 281.917 185.632C281.917 185.385 282.214 185.558 283.399 188.224C284.583 190.89 282.905 191.186 281.917 191.926C283.399 197.11 274.512 202.664 271.18 204.515C268.514 205.996 263.898 202.787 263.034 201.553C261.188 198.501 258.863 194.625 260.443 193.778C260.896 193.534 263.777 195.93 265.626 197.851C263.652 194.148 259.702 187.187 261.183 186.002C262.664 184.818 266.49 190.692 268.218 193.778C266.12 189.458 262.294 180.523 263.775 179.338C265.256 178.153 270.069 185.509 272.291 189.335C270.193 185.632 266.441 177.931 268.218 176.746C269.995 175.561 275.129 183.904 277.474 188.224C276.487 185.755 274.957 180.671 276.734 180.078Z" fill="#FFBF98"/>
<circle cx="41.8388" cy="85.1789" r="6.77537" stroke="white" stroke-width="2"/>
<circle cx="140.327" cy="329.548" r="35.1743" fill="#F6A217"/>
<path d="M280.654 364.722H98.1182" stroke="white" stroke-linecap="round"/>
<rect x="289.804" y="101.699" width="55.7599" height="19.4748" rx="9.73741" transform="rotate(14.7316 289.804 101.699)" stroke="white" stroke-width="2"/>
<path d="M66.0419 71.4632L85.7986 92.9139L57.3434 99.2984L66.0419 71.4632Z" fill="#FE5000"/>
<path fill-rule="evenodd" clip-rule="evenodd" d="M317.677 148.508L294.675 139.671L298.523 164.01L304.753 158.968L315.663 172.327L322.923 166.398L312.039 153.071L317.677 148.508Z" fill="#FE5000"/>
<path d="M114.132 192.329L114.941 192.917C115.151 192.628 115.191 192.249 115.045 191.922C114.9 191.596 114.592 191.372 114.237 191.334L114.132 192.329ZM89.0527 226.828L88.1391 227.235C88.2843 227.561 88.5926 227.785 88.9479 227.823C89.3032 227.86 89.6515 227.705 89.8616 227.416L89.0527 226.828ZM71.7151 187.859L71.8199 186.865C71.4646 186.828 71.1163 186.982 70.9062 187.271C70.6961 187.56 70.6562 187.94 70.8014 188.266L71.7151 187.859ZM77.5395 200.951L77.9024 201.882C78.1572 201.783 78.3602 201.584 78.4643 201.331C78.5683 201.078 78.5643 200.794 78.4532 200.544L77.5395 200.951ZM47.3368 212.715L46.9739 211.783C46.7267 211.879 46.528 212.07 46.4213 212.312C46.3146 212.555 46.3087 212.831 46.405 213.078L47.3368 212.715ZM52.6918 226.463L51.76 226.826C51.9604 227.341 52.5401 227.595 53.0547 227.395L52.6918 226.463ZM83.5437 214.446L84.4574 214.04C84.2404 213.552 83.6783 213.32 83.1808 213.514L83.5437 214.446ZM113.323 191.741L88.2438 226.24L89.8616 227.416L114.941 192.917L113.323 191.741ZM71.6103 188.854L114.027 193.323L114.237 191.334L71.8199 186.865L71.6103 188.854ZM78.4532 200.544L72.6287 187.453L70.8014 188.266L76.6259 201.357L78.4532 200.544ZM47.6997 213.647L77.9024 201.882L77.1766 200.019L46.9739 211.783L47.6997 213.647ZM53.6236 226.1L48.2686 212.352L46.405 213.078L51.76 226.826L53.6236 226.1ZM83.1808 213.514L52.3288 225.531L53.0547 227.395L83.9067 215.378L83.1808 213.514ZM89.9664 226.422L84.4574 214.04L82.6301 214.853L88.1391 227.235L89.9664 226.422Z" fill="white"/>
</svg>
