<svg width="58" height="58" viewBox="0 0 58 58" fill="none" xmlns="http://www.w3.org/2000/svg">
<path fill-rule="evenodd" clip-rule="evenodd" d="M37.5987 0C43.3937 0 46.2904 0 49.4099 0.98611C52.8156 2.22572 55.4978 4.90794 56.7374 8.31363C57.7235 11.4326 57.7235 14.3303 57.7235 20.1248V37.5987C57.7235 43.3937 57.7235 46.2904 56.7374 49.4099C55.4978 52.8156 52.8156 55.4978 49.4099 56.7369C46.2904 57.7235 43.3937 57.7235 37.5987 57.7235H20.1248C14.3299 57.7235 11.4326 57.7235 8.31363 56.7369C4.90794 55.4978 2.22572 52.8156 0.98611 49.4099C0 46.2904 0 43.3937 0 37.5987V20.1248C0 14.3303 0 11.4326 0.98611 8.31363C2.22572 4.90794 4.90794 2.22572 8.31363 0.98611C11.4326 0 14.3299 0 20.1248 0H37.5987Z" fill="white"/>
<mask id="mask0_166_2698" style="mask-type:luminance" maskUnits="userSpaceOnUse" x="0" y="0" width="58" height="58">
<path fill-rule="evenodd" clip-rule="evenodd" d="M37.5987 0C43.3937 0 46.2904 0 49.4099 0.98611C52.8156 2.22572 55.4978 4.90794 56.7374 8.31363C57.7235 11.4326 57.7235 14.3303 57.7235 20.1248V37.5987C57.7235 43.3937 57.7235 46.2904 56.7374 49.4099C55.4978 52.8156 52.8156 55.4978 49.4099 56.7369C46.2904 57.7235 43.3937 57.7235 37.5987 57.7235H20.1248C14.3299 57.7235 11.4326 57.7235 8.31363 56.7369C4.90794 55.4978 2.22572 52.8156 0.98611 49.4099C0 46.2904 0 43.3937 0 37.5987V20.1248C0 14.3303 0 11.4326 0.98611 8.31363C2.22572 4.90794 4.90794 2.22572 8.31363 0.98611C11.4326 0 14.3299 0 20.1248 0H37.5987Z" fill="white"/>
</mask>
<g mask="url(#mask0_166_2698)">
<path fill-rule="evenodd" clip-rule="evenodd" d="M28.8617 53.8905C42.6846 53.8905 53.8903 42.6848 53.8903 28.8619C53.8903 15.039 42.6846 3.83337 28.8617 3.83337C15.0388 3.83337 3.83313 15.039 3.83313 28.8619C3.83313 42.6848 15.0388 53.8905 28.8617 53.8905ZM28.8617 47.4378C39.1209 47.4378 47.4376 39.1211 47.4376 28.8619C47.4376 18.6027 39.1209 10.286 28.8617 10.286C18.6025 10.286 10.2858 18.6027 10.2858 28.8619C10.2858 39.1211 18.6025 47.4378 28.8617 47.4378Z" fill="#8C64C9"/>
</g>
</svg>
