<svg width="87" height="26" viewBox="0 0 87 26" fill="none" xmlns="http://www.w3.org/2000/svg">
<path fill-rule="evenodd" clip-rule="evenodd" d="M18.0668 4.0509H19.7091C19.8881 4.0509 20.0289 4.19184 20.0289 4.37068V14.624C20.0289 14.8026 19.8881 14.9435 19.7091 14.9435H18.0668C17.8881 14.9435 17.7471 14.8026 17.7471 14.624V4.37068C17.7471 4.19184 17.8881 4.0509 18.0668 4.0509Z" fill="black"/>
<path fill-rule="evenodd" clip-rule="evenodd" d="M22.6152 6.05036V4.40389C22.6152 4.22504 22.7614 4.08411 22.9403 4.08411H32.6698C32.8486 4.08411 32.9949 4.22504 32.9949 4.40389V6.00712V6.37014C32.9893 6.48361 32.9517 6.56502 32.8811 6.62454L25.7208 12.6477L22.951 14.9279L22.6313 14.5705L22.6257 12.5612C22.6257 12.4419 22.6908 12.3824 22.7558 12.3119L29.8725 6.36455H22.9401C22.7611 6.36455 22.6152 6.22361 22.6152 6.05036Z" fill="black"/>
<path fill-rule="evenodd" clip-rule="evenodd" d="M22.6299 14.6299V12.9834C22.6299 12.8101 22.7709 12.6638 22.9499 12.6638H32.6471C32.8204 12.6638 32.9668 12.8101 32.9668 12.9834V14.6299C32.9668 14.8034 32.8204 14.9496 32.6471 14.9496H22.9499C22.7709 14.9496 22.6299 14.8034 22.6299 14.6299Z" fill="black"/>
<path fill-rule="evenodd" clip-rule="evenodd" d="M57.348 4.0675H62.6112C63.4404 4.0675 64.8874 4.14332 66.0908 5.80073C66.6926 6.62957 66.7631 7.95143 66.7522 8.15698C66.6165 9.33231 66.1234 10.367 65.1099 11.2014L66.5679 14.5485C66.6058 14.635 66.6005 14.7434 66.5516 14.8192C66.4976 14.9113 66.3998 14.9655 66.3296 14.9655H64.4869C64.4218 14.9655 64.3512 14.9708 64.281 14.9436C64.1888 14.911 64.0967 14.8352 64.0694 14.7594L62.9149 11.8888H58.3401V14.6457C58.3401 14.8192 58.194 14.9655 58.0204 14.9655H56.3725C56.1991 14.9655 56.0527 14.8192 56.0527 14.6457V4.38703C56.0527 4.21353 56.1991 4.0675 56.3725 4.0675H57.348ZM58.3399 9.60325H63.0015C63.256 9.58696 63.6736 9.47325 63.8688 9.2944C65.0394 8.23279 64.4108 6.32072 62.6112 6.35329H58.3399V9.60325Z" fill="black"/>
<path fill-rule="evenodd" clip-rule="evenodd" d="M70.0805 4.0509H71.7281C71.9018 4.0509 72.0481 4.19718 72.0481 4.37068V14.6294C72.0481 14.8029 71.9018 14.9491 71.7281 14.9491H70.0805C69.9069 14.9491 69.7607 14.8029 69.7607 14.6294V4.37068C69.7607 4.19718 69.9069 4.0509 70.0805 4.0509Z" fill="black"/>
<path fill-rule="evenodd" clip-rule="evenodd" d="M80.8727 6.79205L79.0567 10.7569H82.6886L80.8727 6.79205ZM78.0163 13.0371L77.2085 14.7922C77.138 14.9545 76.959 14.9657 76.7856 14.9657L75.0242 14.9601C74.9374 14.9601 74.8399 14.9005 74.791 14.8191C74.7368 14.7326 74.7368 14.6187 74.7747 14.5375L79.4906 4.3114C79.5501 4.1814 79.6963 4.07303 79.8806 4.07303H81.7779C81.9892 4.07303 82.1682 4.11628 82.2657 4.32768L86.9708 14.5375C87.063 14.727 86.922 14.9601 86.7377 14.9601L84.965 14.9657C84.7863 14.9657 84.6073 14.9547 84.5368 14.7922L83.7346 13.0371H78.016H78.0163Z" fill="black"/>
<path fill-rule="evenodd" clip-rule="evenodd" d="M15.514 4.07253H13.8391C13.6601 4.07253 13.4921 4.14834 13.4432 4.32184L11.2862 12.7338L9.33485 4.37603C9.29157 4.17556 9.10191 4.0509 8.92854 4.0509H6.98254C6.86874 4.0509 6.73865 4.11069 6.65209 4.21906C6.60856 4.27859 6.58158 4.34881 6.55968 4.43581L4.33746 12.7501L2.25602 4.32209C2.21274 4.14859 2.03378 4.07278 1.85506 4.07278H0.272343C0.0936284 4.07278 -0.0311154 4.28953 0.0068169 4.46278L2.40801 14.6889C2.44594 14.8408 2.58698 14.9435 2.7387 14.9382L5.82828 14.9438C6.03983 14.9438 6.15897 14.7596 6.2132 14.5538L7.93161 8.20576L9.43821 14.5645C9.49243 14.7759 9.68235 14.9329 9.86106 14.9382L12.6362 14.9438C12.8152 14.9438 13.0046 14.8301 13.0751 14.5645L15.7584 4.46303C15.8017 4.28953 15.6932 4.07304 15.5142 4.07304L15.514 4.07253Z" fill="black"/>
<path fill-rule="evenodd" clip-rule="evenodd" d="M44.2194 16.5202C46.1601 16.5202 47.9162 15.7349 49.1898 14.4619C50.4637 13.1945 51.2496 11.4396 51.2496 9.50057C51.2496 7.56128 50.4637 5.80642 49.1898 4.53341C47.9162 3.26599 46.1598 2.48065 44.2194 2.48065C42.2844 2.48065 40.5229 3.26599 39.2544 4.53341C37.9807 5.80642 37.1946 7.56153 37.1946 9.50057C37.1946 11.4396 37.9807 13.1942 39.2544 14.4619C40.5227 15.7349 42.2844 16.5202 44.2194 16.5202ZM50.9462 16.217C49.2224 17.9339 46.8482 19.0011 44.2194 19.0011C41.596 19.0011 39.222 17.9342 37.4985 16.217C35.7801 14.5 34.7178 12.1222 34.7178 9.50057C34.7178 6.87923 35.7801 4.5011 37.4985 2.78415C39.222 1.06161 41.596 0 44.2194 0C46.8482 0 49.2224 1.06161 50.9462 2.78415C52.6643 4.5011 53.7267 6.87923 53.7267 9.50057C53.7267 12.1222 52.6643 14.5 50.9462 16.217Z" fill="#8C64C9"/>
<path fill-rule="evenodd" clip-rule="evenodd" d="M17.6498 23.3073C17.2812 23.3073 16.9777 23.432 16.7285 23.6757C16.479 23.9141 16.3545 24.212 16.3545 24.5641C16.3545 24.9162 16.4792 25.2141 16.7285 25.4578C16.9777 25.7015 17.2812 25.8206 17.6498 25.8206C17.7689 25.8206 17.8937 25.8045 18.0075 25.7666C18.1266 25.7341 18.2188 25.6962 18.2893 25.6529C18.3652 25.6097 18.4303 25.5608 18.4952 25.5069C18.5602 25.4471 18.6037 25.4092 18.62 25.3876C18.6363 25.3659 18.6526 25.3499 18.6633 25.3336L18.4138 25.0897L18.3868 25.1332C18.3649 25.1548 18.3326 25.1871 18.289 25.2253C18.2458 25.2629 18.1969 25.3011 18.1373 25.3387C18.0831 25.3766 18.0072 25.4092 17.9204 25.4308C17.8338 25.458 17.7417 25.4743 17.6493 25.4743C17.3947 25.4743 17.1778 25.3876 17.0044 25.209C16.8257 25.0355 16.7389 24.819 16.7389 24.5643C16.7389 24.3099 16.8257 24.0985 17.0044 23.9199C17.1781 23.7464 17.3947 23.6599 17.6493 23.6599C17.7417 23.6599 17.8338 23.6706 17.9204 23.6976C18.007 23.7248 18.0777 23.7518 18.1317 23.7843C18.1806 23.8169 18.2348 23.8546 18.2781 23.8981C18.327 23.9413 18.354 23.9683 18.3702 23.9846C18.3809 24.0008 18.3921 24.0171 18.3972 24.0225L18.6414 23.7785L18.6034 23.7299C18.5815 23.6973 18.5383 23.6594 18.4843 23.6162C18.4245 23.5673 18.3596 23.5241 18.289 23.4752C18.2132 23.4264 18.121 23.3888 18.0072 23.3562C17.8937 23.3236 17.774 23.3073 17.6495 23.3073H17.6498ZM27.1301 25.7883H27.5096V23.3452H27.1301V25.7883ZM37.8786 23.3452V25.1057L36.5182 23.3452H36.1875V25.7883H36.5726V24.0225L37.9331 25.7883H38.2636V23.3452H37.8786ZM47.3263 25.4359V24.6885H48.3889V24.3364H47.3263V23.6917H48.6708V23.3452H46.9414V25.788H48.7031V25.4359H47.3263ZM58.4815 24.5315L57.5383 23.3452H57.2078V25.7883H57.5871V24.0062L58.4815 25.122L59.3705 24.0062V25.7883H59.7554V23.3452H59.4247L58.4815 24.5315ZM68.1514 25.7883H68.5524L68.8125 25.1436H69.8965L70.1567 25.7883H70.5577L69.5495 23.3452H69.1646L68.1511 25.7883H68.1514ZM69.3548 23.7785L69.7558 24.7915H68.9536L69.3545 23.7785H69.3548Z" fill="black"/>
</svg>
